# xmcd
#
# Track frame offsets: 
#        150
#        40297
#        58247
#        74013
#        93417
#        109791
#        125076
#
# Disc length: 1956 seconds
#
# Revision: 1
# Processed by: cddbd v1.5.2PL0 Copyright (c) Steve Scherf et al.
# Submitted via: ExactAudioCopyFreeDBPlugin 1.0
#
DISCID=6a07a207
DTITLE=Eric Church - Mr Misundestood On the Rocks
DYEAR=2016
DGENRE=Country
TTITLE0=Mistress Named Music RedRocks Medley
TTITLE1=Chattanooga Lucy
TTITLE2=Mixed Drinks About Feelings
TTITLE3=Knives of New Orleans
TTITLE4=Kill A Word
TTITLE5=Record Year
TTITLE6=Hallelujah
EXTD=
EXTT0=
EXTT1=
EXTT2=
EXTT3=
EXTT4=
EXTT5=
EXTT6=
PLAYORDER=
